REM DIRINDEX 1\2\3,1\2\4,1\2\5,1\2\6
REM DIRNAME cjc157,folder01,folder02,folder03,folder04,folder05
TITLE ""
FILE "175 175.mp3" MP3
  TRACK 01 AUDIO
    TITLE "0:"
    INDEX 01 00:00:00
  TRACK 02 AUDIO
    TITLE "3:cjc157_6354"
    INDEX 01 00:00:11
  TRACK 03 AUDIO
    TITLE "0:"
    INDEX 01 00:01:42
  TRACK 04 AUDIO
    TITLE "4:cjc157_6355"
    INDEX 01 00:02:12
  TRACK 05 AUDIO
    TITLE "0:"
    INDEX 01 00:03:68
  TRACK 06 AUDIO
    TITLE "5:cjc157_6356"
    INDEX 01 00:04:40
  TRACK 07 AUDIO
    TITLE "0:"
    INDEX 01 00:07:25
  TRACK 08 AUDIO
    TITLE "3:cjc157_6357"
    INDEX 01 00:07:70
  TRACK 09 AUDIO
    TITLE "0:"
    INDEX 01 00:09:24
  TRACK 10 AUDIO
    TITLE "4:cjc157_6358"
    INDEX 01 00:09:71
  TRACK 11 AUDIO
    TITLE "0:"
    INDEX 01 00:11:21
  TRACK 12 AUDIO
    TITLE "5:cjc157_6359"
    INDEX 01 00:11:72
  TRACK 13 AUDIO
    TITLE "0:"
    INDEX 01 00:14:64
  TRACK 14 AUDIO
    TITLE "3:cjc157_6360"
    INDEX 01 00:15:32
  TRACK 15 AUDIO
    TITLE "0:"
    INDEX 01 00:16:44
  TRACK 16 AUDIO
    TITLE "4:cjc157_6361"
    INDEX 01 00:17:16
  TRACK 17 AUDIO
    TITLE "0:"
    INDEX 01 00:20:32
  TRACK 18 AUDIO
    TITLE "5:cjc157_6362"
    INDEX 01 00:21:02
  TRACK 19 AUDIO
    TITLE "0:"
    INDEX 01 00:25:45
  TRACK 20 AUDIO
    TITLE "3:cjc157_6363"
    INDEX 01 00:26:20
  TRACK 21 AUDIO
    TITLE "0:"
    INDEX 01 00:27:32
  TRACK 22 AUDIO
    TITLE "4:cjc157_6364"
    INDEX 01 00:28:04
  TRACK 23 AUDIO
    TITLE "0:"
    INDEX 01 00:29:25
  TRACK 24 AUDIO
    TITLE "5:cjc157_6365"
    INDEX 01 00:29:66
  TRACK 25 AUDIO
    TITLE "0:"
    INDEX 01 00:32:64
  TRACK 26 AUDIO
    TITLE "3:cjc157_6366"
    INDEX 01 00:33:34
  TRACK 27 AUDIO
    TITLE "0:"
    INDEX 01 00:35:23
  TRACK 28 AUDIO
    TITLE "4:cjc157_6367"
    INDEX 01 00:35:66
  TRACK 29 AUDIO
    TITLE "0:"
    INDEX 01 00:37:34
  TRACK 30 AUDIO
    TITLE "5:cjc157_6368"
    INDEX 01 00:38:06
  TRACK 31 AUDIO
    TITLE "0:"
    INDEX 01 00:41:36
  TRACK 32 AUDIO
    TITLE "3:cjc157_6369"
    INDEX 01 00:42:06
  TRACK 33 AUDIO
    TITLE "0:"
    INDEX 01 00:43:62
  TRACK 34 AUDIO
    TITLE "4:cjc157_6370"
    INDEX 01 00:44:32
  TRACK 35 AUDIO
    TITLE "0:"
    INDEX 01 00:46:51
  TRACK 36 AUDIO
    TITLE "5:cjc157_6371"
    INDEX 01 00:47:23
  TRACK 37 AUDIO
    TITLE "0:"
    INDEX 01 00:52:10
  TRACK 38 AUDIO
    TITLE "3:cjc157_6372"
    INDEX 01 00:52:55
  TRACK 39 AUDIO
    TITLE "0:"
    INDEX 01 00:54:11
  TRACK 40 AUDIO
    TITLE "4:cjc157_6373"
    INDEX 01 00:54:58
  TRACK 41 AUDIO
    TITLE "0:"
    INDEX 01 00:57:60
  TRACK 42 AUDIO
    TITLE "5:cjc157_6374"
    INDEX 01 00:58:34
  TRACK 43 AUDIO
    TITLE "0:"
    INDEX 01 01:01:15
  TRACK 44 AUDIO
    TITLE "3:cjc157_6375"
    INDEX 01 01:01:64
  TRACK 45 AUDIO
    TITLE "0:"
    INDEX 01 01:03:10
  TRACK 46 AUDIO
    TITLE "4:cjc157_6376"
    INDEX 01 01:03:59
  TRACK 47 AUDIO
    TITLE "0:"
    INDEX 01 01:05:09
  TRACK 48 AUDIO
    TITLE "5:cjc157_6377"
    INDEX 01 01:05:60
  TRACK 49 AUDIO
    TITLE "0:"
    INDEX 01 01:10:18
  TRACK 50 AUDIO
    TITLE "5:cjc157_6378"
    INDEX 01 01:10:63
  TRACK 51 AUDIO
    TITLE "0:"
    INDEX 01 01:13:36
  TRACK 52 AUDIO
    TITLE "3:cjc157_6379"
    INDEX 01 01:14:10
  TRACK 53 AUDIO
    TITLE "0:"
    INDEX 01 01:15:27
  TRACK 54 AUDIO
    TITLE "4:cjc157_6380"
    INDEX 01 01:15:68
  TRACK 55 AUDIO
    TITLE "0:"
    INDEX 01 01:17:14
  TRACK 56 AUDIO
    TITLE "5:cjc157_6381"
    INDEX 01 01:17:63
  TRACK 57 AUDIO
    TITLE "0:"
    INDEX 01 01:20:59
  TRACK 58 AUDIO
    TITLE "3:cjc157_6382"
    INDEX 01 01:21:43
  TRACK 59 AUDIO
    TITLE "0:"
    INDEX 01 01:22:72
  TRACK 60 AUDIO
    TITLE "4:cjc157_6383"
    INDEX 01 01:23:42
  TRACK 61 AUDIO
    TITLE "0:"
    INDEX 01 01:24:73
  TRACK 62 AUDIO
    TITLE "5:cjc157_6384"
    INDEX 01 01:25:39
  TRACK 63 AUDIO
    TITLE "0:"
    INDEX 01 01:29:74
